<svg width="75" height="35" viewBox="0 0 75 35" fill="none" xmlns="http://www.w3.org/2000/svg">
<rect width="75" height="34" transform="translate(0 0.5)" fill="black"/>
<rect y="0.5" width="34" height="34" rx="17" fill="black"/>
<path d="M18.705 9.36835L15.2484 9.36002H15.2467C11.6017 9.36002 8.7467 12.2158 8.7467 15.8617C8.7467 19.2767 11.4017 21.8667 14.9675 22.0033V25.1933C14.9675 25.2833 15.0042 25.4317 15.0675 25.5292C15.1859 25.7167 15.3875 25.8183 15.5942 25.8183C15.7092 25.8183 15.825 25.7867 15.9292 25.72C16.1492 25.58 21.3234 22.27 22.6692 21.1317C24.2542 19.79 25.2025 17.8233 25.205 15.8717V15.8575C25.2 12.2183 22.3467 9.36835 18.705 9.36752V9.36835ZM21.8609 20.1783C20.9159 20.9783 17.8092 23.0159 16.2175 24.0475V21.3917C16.2175 21.0467 15.9384 20.7667 15.5925 20.7667H15.2625C12.2125 20.7667 9.99754 18.7034 9.99754 15.8617C9.99754 12.9167 12.3042 10.61 15.2475 10.61L18.7034 10.6183H18.705C21.6484 10.6183 23.955 12.9233 23.9567 15.865C23.9542 17.4567 23.1717 19.0683 21.8617 20.1783H21.8609Z" fill="#6E767D"/>
<rect width="41" height="16" transform="translate(34 9.5)" fill="black"/>
<path d="M48.812 18.1455H49.9229C51.3892 18.1455 52.2905 18.8564 52.2905 20.0054C52.2905 21.1099 51.3193 21.9287 49.9927 21.9287C48.7358 21.9287 47.7837 21.186 47.7075 20.1577H46.8696C46.9268 21.6367 48.228 22.6904 49.999 22.6904C51.7954 22.6904 53.1855 21.5288 53.1855 20.0244C53.1855 18.7676 52.373 17.8979 51.0654 17.752V17.6694C52.1318 17.4346 52.7666 16.6284 52.7666 15.5239C52.7666 14.2036 51.5225 13.1499 49.9609 13.1499C48.2979 13.1499 47.1616 14.1274 47.0601 15.6255H47.9043C47.9932 14.5845 48.793 13.9116 49.9292 13.9116C51.0654 13.9116 51.8843 14.6289 51.8843 15.6255C51.8843 16.6729 51.0654 17.3965 49.8848 17.3965H48.812V18.1455ZM58.1938 22.6841C60.022 22.6841 61.3486 21.3638 61.3486 19.542C61.3486 17.79 60.0664 16.4951 58.3271 16.4951C57.1274 16.4951 56.1182 17.1553 55.7183 18.1836H55.6421C55.6611 15.4668 56.6006 13.9307 58.2446 13.9307C59.2666 13.9307 60.0664 14.54 60.2949 15.4922H61.1836C60.9233 14.064 59.7744 13.1499 58.2573 13.1499C56.0801 13.1499 54.7979 14.9971 54.7979 18.1138C54.7979 19.2754 55.001 20.2212 55.4072 20.9385C55.9785 22.0684 56.9561 22.6841 58.1938 22.6841ZM58.1812 21.916C56.8735 21.916 55.8706 20.875 55.8706 19.5103C55.8706 18.228 56.8799 17.2505 58.1875 17.2505C59.5142 17.2505 60.4727 18.2217 60.4727 19.5737C60.4727 20.9004 59.4824 21.916 58.1812 21.916Z" fill="#6E767D"/>
</svg>
